<svg id="Layer_1" data-name="Layer 1" xmlns="http://www.w3.org/2000/svg" viewBox="0 0 1405 395">
  <g>
    <path d="M324.58,215c0,44.76,10.66,88.1,36.09,123.55,16.56,23.08,31,42,47.45,56.45h-26c-16.43-12.45-36.74-31.85-51.43-48.45-23-26-43-65.1-43-131.55s20-105.55,43-131.55c14.69-16.6,35-36,51.43-48.45h26c-16.45,14.45-30.89,33.37-47.45,56.45C335.24,126.9,324.58,170.24,324.58,215Z"/>
    <path d="M1368.1,215c0-44.76-12.34-91.39-37.77-126.84-16.56-23.08-31.58-40.48-48.77-53.16h29c15.39,11,35.5,28.44,48.42,46.45,27.84,38.8,46,67.1,46,133.55s-18.16,94.75-46,133.55c-12.92,18-33,35.49-48.42,46.45h-29c17.19-12.68,32.21-30.08,48.77-53.16C1355.76,306.39,1368.1,259.76,1368.1,215Z"/>
    <polygon points="514.5 98.55 484.5 98.55 514.5 41.55 559.5 41.55 514.5 98.55"/>
    <polygon points="1033.51 99 1063.51 99 1033.51 42 988.5 42 1033.51 99"/>
    <path d="M878.7,66.55,774,247.88,669.31,66.55H878.7m43.3-25H626L774,297.88,922,41.55Z"/>
    <path d="M213.65,337.2c-60.81-20.77-116.18-68.71-155.89-135C21.05,141,0,67.24,0,0H30c0,62,19.5,130.05,53.49,186.79,36.07,60.2,85.74,103.54,139.86,122Z"/>
  </g>
</svg>
