<svg id="Layer_1" data-name="Layer 1" xmlns="http://www.w3.org/2000/svg" viewBox="0 0 2023 446">
  <g>
    <path d="M390.08,214.55c0,44.76,10.66,88.1,36.09,123.55,16.56,23.08,31,42,47.45,56.45h-26c-16.43-12.45-36.74-31.85-51.43-48.45-23-26-43-65.1-43-131.55s20-105.55,43-131.55c14.69-16.6,35-36,51.43-48.45h26C457.17,49,442.73,67.92,426.17,91,400.74,126.45,390.08,169.79,390.08,214.55Z"/>
    <path d="M1617.59,215c0-44.76-12.34-91.39-37.77-126.84-16.56-23.08-31.58-40.48-48.77-53.16h29c15.4,11,35.51,28.44,48.43,46.45,27.84,38.8,46,67.1,46,133.55s-18.15,94.75-46,133.55c-12.92,18-33,35.49-48.43,46.45h-29c17.19-12.68,32.21-30.08,48.77-53.16C1605.25,306.39,1617.59,259.76,1617.59,215Z"/>
    <path d="M711.14,163.29v157l-136-78.52,136-78.52m30-52-226,130.49,226,130.48v-261ZM708.6,35.89a30,30,0,1,0,30-30A30,30,0,0,0,708.6,35.89ZM576.37,112.17a30,30,0,1,0,30-30A30,30,0,0,0,576.37,112.17Z"/>
    <polygon points="348.18 385 0 385 292.58 92.39 313.79 113.61 72.42 355 348.18 355 348.18 385"/>
    <polygon points="1488.06 385 1139.88 385 1432.46 92.39 1453.67 113.61 1212.3 355 1488.06 355 1488.06 385"/>
    <rect x="1671.04" y="355" width="351.96" height="30"/>
    <path d="M1010.56,110.26,1029.1,0h-30l-18,107-1.5,0C905.88,107,846.12,161,846.12,227.5c0,54.57,40.19,100.67,95.32,115.49L924.12,446h30l16.53-98.28c3,.18,6,.28,9,.28,73.73,0,133.49-53.95,133.49-120.5C1113.1,170.57,1069.36,122.87,1010.56,110.26ZM878.25,227.5c0-53.63,44.19-97.23,99.15-98.38l-32.12,191C906.2,306.46,878.25,270.15,878.25,227.5Zm101.36,98.4c-1.77,0-3.53,0-5.28-.13l32.47-193.09c42.77,11.54,74.17,49.62,74.17,94.82C1081,281.85,1035.59,325.9,979.61,325.9Z"/>
  </g>
</svg>
